<svg xmlns="http://www.w3.org/2000/svg" xmlns:xlink="http://www.w3.org/1999/xlink" width="114" height="76"><path fill="red" stroke="black" d="M15.81 43.08L5.60 26.90L12.54 26.90L19 38.74L25.46 26.90L32.36 26.90L22.19 43.08L34.73 63.01L27.35 63.01L19 48.02L10.65 63.01L3.27 63.01L15.81 43.08ZM53.81 43.08L43.60 26.90L50.54 26.90L57 38.74L63.46 26.90L70.36 26.90L60.19 43.08L72.73 63.01L65.35 63.01L57 48.02L48.65 63.01L41.27 63.01L53.81 43.08ZM91.81 43.08L81.60 26.90L88.54 26.90L95 38.74L101.46 26.90L108.36 26.90L98.19 43.08L110.73 63.01L103.35 63.01L95 48.02L86.65 63.01L79.27 63.01L91.81 43.08Z"/></svg>